<svg xmlns="http://www.w3.org/2000/svg" width="40" height="40" viewBox="0 0 40 40">
  <path id="Exclusão_1" data-name="Exclusão 1" d="M25,37A20,20,0,0,1,5,17,20,20,0,0,1,39.142,2.858a20,20,0,0,1,0,28.284A19.869,19.869,0,0,1,25,37ZM22.3,7.5V24.482L25.958,25.6V11.485a.539.539,0,0,1,.145-.4.6.6,0,0,1,.439-.169.943.943,0,0,1,.885,1.052v5.676a3.986,3.986,0,0,0,1.7.447,2.148,2.148,0,0,0,1.321-.425,3.435,3.435,0,0,0,1.25-3.046,5.269,5.269,0,0,0-.986-3.529,6.7,6.7,0,0,0-3.332-2.082l-.422-.138C25.137,8.275,23.562,7.761,22.3,7.5Zm9.47,12.656a2.605,2.605,0,0,1,.656.078c.319.08.5.207.5.359s-.193.331-.548.453l-.811.329-4.69,1.687v2.213l2.191-.789,5.261-1.863.613-.286c1.277-.462,1.841-.97,1.776-1.6-.021-.559-.647-1.026-1.972-1.468a11.2,11.2,0,0,0-3.595-.641c-.109,0-.22,0-.329.006a15.047,15.047,0,0,0-3.945.833v2.169l3.551-1.25A4.422,4.422,0,0,1,31.769,20.152ZM21.137,17.8h0l-.7.242L15.9,19.661l-.79.307c-1.166.5-1.8,1.026-1.776,1.49.065.664.8,1.173,2.237,1.556a13.672,13.672,0,0,0,3.5.462,13.929,13.929,0,0,0,2.062-.156V21.413l-1.512.57a4.44,4.44,0,0,1-1.445.269,2.076,2.076,0,0,1-.944-.181.362.362,0,0,1-.186-.332c.013-.121.109-.294.493-.435L18.375,21l2.762-.986V17.8Z" transform="translate(-5 3)" fill="#d66c2d"/>
</svg>
