<svg xmlns="http://www.w3.org/2000/svg" width="40" height="40" viewBox="0 0 40 40">
  <path id="Exclusão_4" data-name="Exclusão 4" d="M25,37A20,20,0,0,1,5,17,20,20,0,0,1,39.142,2.858a20,20,0,0,1,0,28.284A19.869,19.869,0,0,1,25,37Zm.852-31.491V28h5.1A5.057,5.057,0,0,0,36,22.948V10.561a5.057,5.057,0,0,0-5.052-5.052Zm-7.292,0a5.057,5.057,0,0,0-5.052,5.052V22.948A5.057,5.057,0,0,0,18.561,28h5.974V5.509Zm4.657,21.173H18.561a3.738,3.738,0,0,1-3.734-3.734V10.561a3.738,3.738,0,0,1,3.734-3.734h4.657V26.681Zm-4.2-17.22a2.658,2.658,0,1,0,2.658,2.658A2.66,2.66,0,0,0,19.021,9.463Zm11.905,10.63a2.657,2.657,0,1,1,2.657-2.657A2.66,2.66,0,0,1,30.927,20.093Z" transform="translate(-5 3)" fill="#d66c2d"/>
</svg>
