<svg xmlns="http://www.w3.org/2000/svg" width="40" height="40.001" viewBox="0 0 40 40.001">
  <path id="Exclusão_3" data-name="Exclusão 3" d="M25-13a19.868,19.868,0,0,1-14.142-5.858A19.87,19.87,0,0,1,5-33a19.869,19.869,0,0,1,5.858-14.142A19.869,19.869,0,0,1,25-53a19.869,19.869,0,0,1,14.142,5.858A19.869,19.869,0,0,1,45-33a19.87,19.87,0,0,1-5.858,14.142A19.868,19.868,0,0,1,25-13ZM17.86-41.442h0a1.994,1.994,0,0,0-1.256.627,11.7,11.7,0,0,0-3.1,7.958A11.555,11.555,0,0,0,24.957-21.221a11.4,11.4,0,0,0,8.469-3.808A11.728,11.728,0,0,0,36.4-32.856a11.7,11.7,0,0,0-3.049-7.9c-.025-.029-.052-.057-.078-.084s-.053-.056-.078-.085a1.621,1.621,0,0,0-1.259-.555c-.046,0-.093,0-.14,0a13.32,13.32,0,0,0-4.783,3.16l.009.008a33.91,33.91,0,0,1,4.36,5.406c1.808,2.987,2.62,5.024,2.04,7.871a10.071,10.071,0,0,0-1.781-3.732c-.366-.521-1.7-2.14-2.426-2.968-.666-.761-1.775-1.986-3.272-3.5-.3-.3-.623-.625-1-1,0,0-.517.526-1.215,1.241-1.284,1.318-2.151,2.223-2.651,2.767-1.495,1.622-4.367,5.215-4.535,7.21-.071-.189-.628-1.932.858-5.642a30.254,30.254,0,0,1,5.44-7.694,13.882,13.882,0,0,0-2.677-2.245l-.009,0-.043-.031a5.053,5.053,0,0,0-2.252-.813Zm1.861-1.4a3.136,3.136,0,0,1,.836.122,14.193,14.193,0,0,1,4.389,2.541l0,0c.334-.268,3.318-2.617,5.3-2.617a1.569,1.569,0,0,1,1.23.493,2.937,2.937,0,0,0-.639-.528,11.276,11.276,0,0,0-5.88-1.652,10.98,10.98,0,0,0-6.16,1.817,1.355,1.355,0,0,0-.22.185l.016-.014.016-.015A1.778,1.778,0,0,1,19.721-42.845Z" transform="translate(-5 53)" fill="#d66c2d"/>
</svg>
