<svg xmlns="http://www.w3.org/2000/svg" width="40" height="40.001" viewBox="0 0 40 40.001">
  <path id="Exclusão_6" data-name="Exclusão 6" d="M25-13a19.868,19.868,0,0,1-14.142-5.858A19.87,19.87,0,0,1,5-33a19.869,19.869,0,0,1,5.858-14.142A19.869,19.869,0,0,1,25-53a19.869,19.869,0,0,1,14.142,5.858A19.869,19.869,0,0,1,45-33a19.87,19.87,0,0,1-5.858,14.142A19.868,19.868,0,0,1,25-13Zm2.973-29.718L25.1-39.8l-.01,12.753,2.867,2.869h4.862l2.894-2.913v-5.07H30.886v4.276H30.11V-38.953h.776v3.462H35.71V-39.8l-2.894-2.917H27.973Zm-13.7.019,0,18.49h4.542V-30.44h2.61l2.932-2.97v-6.432L21.427-42.7Zm5.4,8.642h-.835l.017-4.968h.809l.009,4.967Z" transform="translate(-5 53)" fill="#d66c2d"/>
</svg>
